<svg width="35" height="35" viewBox="0 0 35 35" fill="none" xmlns="http://www.w3.org/2000/svg">
<path d="M30.625 2.1875C31.2052 2.1875 31.7616 2.41797 32.1718 2.8282C32.582 3.23844 32.8125 3.79484 32.8125 4.375V30.625C32.8125 31.2052 32.582 31.7616 32.1718 32.1718C31.7616 32.582 31.2052 32.8125 30.625 32.8125H4.375C3.79484 32.8125 3.23844 32.582 2.8282 32.1718C2.41797 31.7616 2.1875 31.2052 2.1875 30.625V4.375C2.1875 3.79484 2.41797 3.23844 2.8282 2.8282C3.23844 2.41797 3.79484 2.1875 4.375 2.1875H30.625ZM4.375 0C3.21468 0 2.10188 0.460936 1.28141 1.28141C0.460936 2.10188 0 3.21468 0 4.375V30.625C0 31.7853 0.460936 32.8981 1.28141 33.7186C2.10188 34.5391 3.21468 35 4.375 35H30.625C31.7853 35 32.8981 34.5391 33.7186 33.7186C34.5391 32.8981 35 31.7853 35 30.625V4.375C35 3.21468 34.5391 2.10188 33.7186 1.28141C32.8981 0.460936 31.7853 0 30.625 0H4.375Z" fill="#051C51"/>
<path d="M23.9969 10.8718C24.303 10.5684 24.7163 10.3976 25.1473 10.3964C25.5784 10.3952 25.9926 10.5637 26.3004 10.8655C26.6082 11.1673 26.7849 11.5781 26.7923 12.0091C26.7996 12.4401 26.637 12.8566 26.3397 13.1687L17.6072 24.0843C17.4571 24.246 17.276 24.3757 17.0746 24.4658C16.8732 24.5558 16.6558 24.6043 16.4352 24.6084C16.2147 24.6125 15.9956 24.5721 15.791 24.4895C15.5865 24.407 15.4006 24.2841 15.2447 24.1281L9.45874 18.34C9.29755 18.1898 9.16826 18.0086 9.07859 17.8074C8.98892 17.6062 8.94071 17.3889 8.93682 17.1686C8.93293 16.9483 8.97346 16.7295 9.05597 16.5252C9.13849 16.3209 9.2613 16.1354 9.41709 15.9796C9.57288 15.8238 9.75846 15.701 9.96274 15.6185C10.167 15.5359 10.3858 15.4954 10.6061 15.4993C10.8264 15.5032 11.0437 15.5514 11.2449 15.6411C11.4462 15.7307 11.6273 15.86 11.7775 16.0212L16.3581 20.5997L23.9553 10.92C23.9689 10.903 23.9835 10.8869 23.9991 10.8718H23.9969Z" fill="#051C51"/>
</svg>
